# Blender v2.82 (sub 7) OBJ File: ''
# www.blender.org
o estomago_Cube.002_Cube.004
v -0.251889 0.500507 0.137774
v -0.159523 0.538207 0.077587
v -0.131515 -0.310028 0.048806
v -0.189571 -0.308441 0.086071
v -0.160541 -0.235663 0.093526
v -0.126158 -0.187496 0.126494
v -0.103739 -0.116034 0.142241
v -0.099588 -0.008293 0.145749
v -0.107299 0.111321 0.148025
v -0.125489 0.223573 0.148955
v -0.204928 0.410724 0.144185
v -0.157579 0.314446 0.147229
v 0.000634 0.257539 0.083557
v 0.010924 0.133854 0.083267
v 0.051261 0.143564 -0.009950
v 0.040041 0.269025 -0.009478
v 0.002026 -0.107403 0.080291
v -0.038079 -0.182551 0.072028
v -0.010225 -0.180856 -0.007435
v 0.034787 -0.104477 -0.009306
v -0.094410 -0.233740 0.052545
v -0.074225 -0.232651 -0.004968
v -0.035494 0.353223 0.082520
v 0.003208 0.367576 -0.007944
v 0.015604 0.007055 0.081982
v -0.098920 0.448892 0.081257
v 0.051481 0.012256 -0.009983
v -0.113831 -0.310068 -0.003327
v -0.128759 0.552832 -0.002451
v -0.063102 0.464133 -0.005183
v -0.262758 0.500546 -0.132357
v -0.164510 0.538784 -0.079350
v -0.196463 -0.308447 -0.086308
v -0.134373 -0.310090 -0.053376
v -0.168167 -0.235674 -0.096145
v -0.136392 -0.187495 -0.131633
v -0.115320 -0.116023 -0.149199
v -0.111425 -0.008240 -0.153014
v -0.119305 0.111390 -0.154614
v -0.137545 0.223654 -0.154023
v -0.216470 0.410748 -0.142663
v -0.169468 0.314483 -0.149636
v -0.004822 0.257980 -0.098568
v 0.005566 0.134225 -0.099142
v -0.003183 -0.107281 -0.095452
v -0.042928 -0.182494 -0.084066
v -0.097475 -0.233707 -0.060104
v -0.040836 0.353781 -0.094534
v 0.010347 0.007301 -0.098246
v -0.104154 0.449485 -0.088013
vn 0.9133 0.0776 0.3999
vn 0.8306 -0.4786 0.2847
vn 0.6202 -0.7580 0.2021
vn 0.8547 0.3200 0.4089
vn 0.5111 -0.2876 0.8100
vn 0.4041 -0.6875 0.6034
vn 0.5011 -0.3437 0.7942
vn 0.4985 -0.0600 0.8648
vn 0.4809 0.0115 0.8767
vn 0.4603 0.0510 0.8863
vn 0.4179 0.2993 0.8578
vn 0.4191 0.1665 0.8926
vn 0.9242 0.0156 0.3816
vn 0.9301 -0.1233 0.3461
vn 0.8544 -0.4304 0.2910
vn 0.7484 0.5329 0.3949
vn 0.8852 0.0787 -0.4586
vn 0.8086 -0.4816 -0.3379
vn 0.6053 -0.7585 -0.2415
vn 0.8254 0.3226 -0.4633
vn 0.4420 -0.2876 -0.8496
vn 0.3529 -0.6866 -0.6356
vn 0.4334 -0.3441 -0.8329
vn 0.4252 -0.0602 -0.9031
vn 0.4065 0.0116 -0.9136
vn 0.3854 0.0513 -0.9213
vn 0.3452 0.2997 -0.8894
vn 0.3439 0.1669 -0.9241
vn 0.8976 0.0159 -0.4405
vn 0.9057 -0.1244 -0.4052
vn 0.8336 -0.4333 -0.3426
vn 0.7185 0.5370 -0.4420
vn 0.3315 0.2543 -0.9085
vn 0.7292 0.5135 -0.4524
vn 0.4057 0.2538 0.8780
vn 0.7593 0.5093 0.4051
s 1
f 13//1 14//1 15//1 16//1
f 17//2 18//2 19//2 20//2
f 18//3 21//3 22//3 19//3
f 23//4 13//4 16//4 24//4
f 3//5 21//5 5//5 4//5
f 21//6 18//6 6//6 5//6
f 17//7 7//7 6//7 18//7
f 25//8 8//8 7//8 17//8
f 14//9 9//9 8//9 25//9
f 13//10 10//10 9//10 14//10
f 2//11 1//11 11//11 26//11
f 23//12 12//12 10//12 13//12
f 14//13 25//13 27//13 15//13
f 25//14 17//14 20//14 27//14
f 21//15 3//15 28//15 22//15
f 2//16 26//16 30//16 29//16
f 43//17 16//17 15//17 44//17
f 45//18 20//18 19//18 46//18
f 46//19 19//19 22//19 47//19
f 48//20 24//20 16//20 43//20
f 34//21 33//21 35//21 47//21
f 47//22 35//22 36//22 46//22
f 45//23 46//23 36//23 37//23
f 49//24 45//24 37//24 38//24
f 44//25 49//25 38//25 39//25
f 43//26 44//26 39//26 40//26
f 32//27 50//27 41//27 31//27
f 48//28 43//28 40//28 42//28
f 44//29 15//29 27//29 49//29
f 49//30 27//30 20//30 45//30
f 47//31 22//31 28//31 34//31
f 32//32 29//32 30//32 50//32
f 50//33 48//33 42//33 41//33
f 50//34 30//34 24//34 48//34
f 26//35 11//35 12//35 23//35
f 26//36 23//36 24//36 30//36
