# Blender v2.82 (sub 7) OBJ File: ''
# www.blender.org
o cola_Cube.002_Cube.000
v 0.419968 0.586904 -0.025740
v -0.376354 0.155722 0.004460
v -0.381696 0.183775 0.013755
v -0.452049 0.198261 0.018499
v -0.457834 0.166357 0.006038
v -0.389963 -0.235069 0.015914
v -0.326670 -0.200281 0.011463
v -0.329349 -0.172350 0.002502
v -0.404278 -0.207438 0.003808
v -0.340308 -0.139379 0.010217
v -0.418418 -0.170068 0.015284
v -0.350459 -0.107457 0.003381
v -0.431364 -0.134187 0.004936
v -0.358542 -0.074195 0.010976
v -0.441134 -0.096179 0.016230
v -0.365695 -0.042034 0.004016
v -0.449538 -0.059731 0.005693
v -0.370895 -0.008655 0.011490
v -0.455533 -0.021511 0.016830
v -0.375096 0.023580 0.004407
v -0.460250 0.015028 0.006139
v -0.377344 0.057033 0.011759
v -0.462556 0.053339 0.017122
v -0.378662 0.089386 0.004556
v -0.463497 0.090089 0.006274
v -0.377912 0.123079 0.011783
v -0.461263 0.128967 0.017068
v -0.529347 0.163694 0.010831
v -0.534486 0.124035 0.018303
v -0.537645 0.083621 0.011176
v -0.537354 0.044876 0.018422
v -0.534980 0.005258 0.011065
v -0.530284 -0.033181 0.018128
v -0.523812 -0.072692 0.010600
v -0.515017 -0.111025 0.017492
v -0.504140 -0.150230 0.009781
v -0.489812 -0.187767 0.016443
v -0.473504 -0.226058 0.008505
v -0.452766 -0.251696 0.016714
v -0.516806 0.195273 0.019381
vn -0.0173 -0.3409 0.9399
vn -0.1221 0.3190 0.9399
vn 0.1333 -0.2163 0.9672
vn -0.0432 0.2316 0.9719
vn 0.1086 -0.2292 0.9673
vn -0.0176 0.2433 0.9698
vn 0.0835 -0.2384 0.9676
vn 0.0086 0.2513 0.9679
vn 0.0578 -0.2437 0.9681
vn 0.0358 0.2537 0.9666
vn 0.0309 -0.2421 0.9698
vn 0.0284 0.2304 0.9727
vn 0.0578 -0.2238 0.9729
vn 0.0171 0.2333 0.9723
vn 0.0679 -0.2247 0.9721
vn 0.0073 0.2313 0.9729
vn 0.0770 -0.2211 0.9722
vn -0.0020 0.2266 0.9740
vn 0.0861 -0.2164 0.9725
vn -0.0113 0.2217 0.9750
vn 0.0951 -0.2113 0.9728
vn -0.0483 0.3280 0.9434
vn 0.0529 -0.3275 0.9434
vn 0.0652 0.2486 0.9664
s 1
f 2//1 3//1 4//1 5//1
f 6//2 7//2 8//2 9//2
f 8//3 10//3 11//3 9//3
f 10//4 12//4 13//4 11//4
f 12//5 14//5 15//5 13//5
f 14//6 16//6 17//6 15//6
f 16//7 18//7 19//7 17//7
f 18//8 20//8 21//8 19//8
f 20//9 22//9 23//9 21//9
f 22//10 24//10 25//10 23//10
f 24//11 26//11 27//11 25//11
f 27//12 5//12 28//12 29//12
f 25//13 27//13 29//13 30//13
f 23//14 25//14 30//14 31//14
f 21//15 23//15 31//15 32//15
f 19//16 21//16 32//16 33//16
f 17//17 19//17 33//17 34//17
f 15//18 17//18 34//18 35//18
f 13//19 15//19 35//19 36//19
f 11//20 13//20 36//20 37//20
f 9//21 11//21 37//21 38//21
f 39//22 6//22 9//22 38//22
f 5//23 4//23 40//23 28//23
f 26//24 2//24 5//24 27//24
