# Blender v2.93.5 OBJ File: 'Submarine_v2.blend'
# www.blender.org
o vidrio_delantero_Cylinder.001
v 0.570779 5.872056 -3.623235
v 0.763076 5.319506 -3.794623
v 0.570761 5.781140 -3.330147
v 0.763059 5.228590 -3.501536
v -0.336417 5.872225 -3.623235
v -0.528725 5.319746 -3.794626
v -0.336434 5.781310 -3.330147
v -0.528742 5.228832 -3.501538
vt 0.625000 0.500000
vt 0.875000 0.500000
vt 0.875000 0.750000
vt 0.625000 0.750000
vt 0.125000 0.500000
vt 0.375000 0.500000
vt 0.375000 0.750000
vt 0.125000 0.750000
vt 0.625000 1.000000
vt 0.375000 1.000000
vt 0.375000 0.250000
vt 0.625000 0.250000
vt 0.375000 0.000000
vt 0.625000 0.000000
vn 0.0002 0.9551 0.2963
vn -0.0002 -0.9551 -0.2963
vn -0.0001 -0.2963 0.9551
vn 0.9490 0.3012 0.0935
vn 0.0001 0.2963 -0.9551
vn -0.9489 0.3013 0.0934
s off
f 1/1/1 5/2/1 7/3/1 3/4/1
f 6/5/2 2/6/2 4/7/2 8/8/2
f 4/7/3 3/4/3 7/9/3 8/10/3
f 2/6/4 1/1/4 3/4/4 4/7/4
f 6/11/5 5/12/5 1/1/5 2/6/5
f 8/13/6 7/14/6 5/12/6 6/11/6
