# Blender v2.93.5 OBJ File: 'Submarine_v2.blend'
# www.blender.org
o tubo_superior_Cylinder.013
v -0.246891 7.984143 -2.770453
v 0.066859 8.099323 -2.816318
v 0.374152 8.061283 -2.810292
v 0.248512 7.075042 -2.794484
v -0.114104 7.108399 -2.791034
v 0.066666 7.063268 -2.776711
v 0.479128 7.098001 -2.805704
v -0.311137 7.144992 -2.792707
v -0.275817 8.038496 -2.658158
v 0.066859 8.100224 -2.663425
v 0.403723 8.068325 -2.662948
v 0.254917 7.063478 -2.680034
v -0.115764 7.063822 -2.655785
v 0.066666 7.063762 -2.659429
v 0.438804 7.075253 -2.676689
v -0.298193 7.063862 -2.654872
v -0.271064 8.022479 -2.247906
v 0.066846 8.031867 -2.252292
v 0.392619 8.034939 -2.252223
v 0.254916 7.055345 -2.599756
v -0.115765 7.055127 -2.598947
v 0.066665 7.056313 -2.602380
v 0.443167 7.056203 -2.602274
v -0.298195 7.054854 -2.598085
v -0.298069 7.735040 -1.807281
v 0.066791 7.738252 -1.810444
v 0.443294 7.738101 -1.810365
v 0.254909 7.019520 -2.557258
v -0.115772 7.018970 -2.556663
v 0.066658 7.021561 -2.559191
v 0.443161 7.021409 -2.559113
v -0.298202 7.018345 -2.556028
v -0.298143 7.342157 -1.533461
v 0.066718 7.346322 -1.535152
v 0.443220 7.346149 -1.535109
v 0.254898 6.959212 -2.521018
v -0.115783 6.958482 -2.520700
v 0.066647 6.961834 -2.522050
v 0.443150 6.961658 -2.522008
v -0.298213 6.957668 -2.520361
v -0.298221 6.923102 -1.494328
v 0.066639 6.927593 -1.494380
v 0.443142 6.927411 -1.494378
v 0.254889 6.912996 -2.521543
v -0.115792 6.912207 -2.521534
v 0.066638 6.915817 -2.521575
v 0.443141 6.915634 -2.521573
v -0.298222 6.911326 -2.521524
v -0.300008 6.734848 -1.488639
v 0.064852 6.739338 -1.488691
v 0.441355 6.739157 -1.488690
v 0.253102 6.724741 -2.515855
v -0.117579 6.723953 -2.515845
v 0.064852 6.730291 -2.515918
v 0.441354 6.727380 -2.515885
v -0.300009 6.723073 -2.515835
v -0.298514 6.548491 -1.482410
v 0.066346 6.552981 -1.482461
v 0.442849 6.552799 -1.482461
v 0.254596 6.538386 -2.509625
v -0.116085 6.537596 -2.509615
v 0.066345 6.541206 -2.509658
v 0.442848 6.541024 -2.509655
v -0.298515 6.536716 -2.509605
v -0.300525 6.321054 -1.481317
v 0.064352 6.415586 -1.482401
v 0.440838 6.328093 -1.481399
v 0.252593 6.357335 -2.509063
v -0.118088 6.356546 -2.509053
v 0.064351 6.403810 -2.509596
v 0.440837 6.316316 -2.508592
v -0.300526 6.309279 -2.508512
vt 0.254828 0.166046
vt 0.252246 0.166061
vt 0.252443 0.161710
vt 0.257400 0.162701
vt 0.256969 0.167226
vt 0.260990 0.166661
vt 0.247314 0.166708
vt 0.249262 0.171990
vt 0.244210 0.177310
vt 0.243499 0.165730
vt 0.253525 0.172139
vt 0.251529 0.173566
vt 0.250679 0.189338
vt 0.258303 0.179826
vt 0.249563 0.166170
vt 0.247263 0.162329
vt 0.254175 0.153165
vt 0.257785 0.168415
vt 0.252800 0.153254
vt 0.251334 0.153285
vt 0.254677 0.167732
vt 0.252048 0.167230
vt 0.246089 0.167733
vt 0.249342 0.167335
vt 0.252019 0.167854
vt 0.249621 0.167908
vt 0.246640 0.168378
vt 0.258684 0.126352
vt 0.257274 0.169041
vt 0.254363 0.126404
vt 0.250318 0.126743
vt 0.254323 0.168250
vt 0.255919 0.168651
vt 0.253714 0.168427
vt 0.248064 0.168095
vt 0.250103 0.108344
vt 0.260829 0.106665
vt 0.255214 0.107713
vt 0.251980 0.168129
vt 0.250208 0.168150
vt 0.250660 0.167764
vt 0.249957 0.168039
vt 0.260990 0.099464
vt 0.253925 0.168353
vt 0.254679 0.101661
vt 0.249616 0.103278
vt 0.253224 0.167956
vt 0.251948 0.167696
vt 0.250974 0.167778
vt 0.250890 0.100994
vt 0.258942 0.094344
vt 0.254205 0.099260
vt 0.251875 0.167512
vt 0.251253 0.167557
vt 0.252737 0.167963
vt 0.252488 0.167647
vt 0.252038 0.167224
vt 0.251838 0.167202
vt 0.251934 0.167291
vt 0.251642 0.167275
vt 0.252320 0.099322
vt 0.255929 0.089109
vt 0.253539 0.097380
vt 0.251589 0.167209
vt 0.252613 0.091702
vt 0.253179 0.096609
vt 0.251825 0.166908
vt 0.251704 0.166893
vt 0.251772 0.166868
vt 0.251810 0.166809
vt 0.253440 0.098565
vt 0.251728 0.167029
vn 0.0341 -0.9927 -0.1155
vn -0.0258 -0.9925 -0.1198
vn -0.0451 -0.9929 -0.1100
vn 0.0537 -0.9946 -0.0890
vn 0.7214 -0.6867 -0.0898
vn 0.8583 -0.5117 -0.0389
vn -0.6830 -0.6944 -0.2264
vn -0.6050 -0.7956 0.0300
vn -0.6985 -0.7044 0.1258
vn -0.8495 -0.4524 -0.2713
vn 0.7147 -0.6993 -0.0123
vn 0.0567 -0.9983 0.0108
vn 0.0752 -0.9886 0.1301
vn 0.6426 -0.7637 0.0617
vn -0.0508 -0.9736 -0.2222
vn -0.1015 -0.9477 -0.3026
vn 0.6415 -0.7084 -0.2942
vn 0.7851 -0.5467 -0.2911
vn 0.0187 -0.9397 -0.3413
vn -0.6219 -0.7310 -0.2806
vn 0.0064 -0.9134 -0.4070
vn -0.0024 -0.9188 -0.3947
vn -0.7830 -0.5566 -0.2774
vn -0.0008 -0.9106 -0.4133
vn -0.0003 -0.6561 -0.7547
vn -0.0010 -0.6471 -0.7624
vn -0.7452 -0.4143 -0.5226
vn 0.6805 -0.4999 -0.5356
vn 0.7454 -0.4128 -0.5235
vn 0.0033 -0.7167 -0.6974
vn -0.6709 -0.5181 -0.5304
vn -0.0001 -0.6545 -0.7560
vn 0.7728 -0.1732 -0.6106
vn 0.0000 -0.2681 -0.9634
vn -0.7746 -0.1596 -0.6119
vn -0.6542 -0.2598 -0.7103
vn 0.6540 -0.2628 -0.7094
vn -0.0002 -0.3474 -0.9377
vn -0.0003 -0.2722 -0.9622
vn -0.0015 -0.2594 -0.9658
vn -0.0011 -0.0088 -0.9999
vn -0.7000 0.0002 -0.7141
vn 0.7006 -0.0489 -0.7118
vn 0.7054 -0.0136 -0.7087
vn -0.0002 -0.0632 -0.9980
vn -0.6993 -0.0410 -0.7136
vn 0.0000 -0.0149 -0.9999
vn -0.0002 -0.0139 -0.9999
vn -0.7087 -0.0218 -0.7052
vn -0.7093 -0.0220 -0.7045
vn 0.7055 -0.0230 -0.7083
vn 0.0001 -0.0318 -0.9995
vn 0.0000 -0.0317 -0.9995
vn 0.0003 -0.0318 -0.9995
vn 0.7049 -0.0231 -0.7089
vn -0.0001 -0.0318 -0.9995
vn 0.0005 -0.0180 -0.9998
vn 0.0000 -0.0178 -0.9998
vn 0.7124 -0.0135 -0.7016
vn -0.7086 -0.0129 -0.7055
vn -0.7021 -0.0126 -0.7119
vn 0.7060 -0.0133 -0.7081
vn 0.0000 -0.0183 -0.9998
vn -0.0004 -0.0181 -0.9998
vn 0.5147 -0.6504 -0.5585
vn 0.0075 -0.6493 -0.7604
vn 0.0036 -0.6465 -0.7629
vn 0.1773 -0.6896 -0.7022
vn 0.5134 -0.6484 -0.5621
vn -0.1607 -0.6969 -0.6989
vn -0.5121 -0.6529 -0.5580
vn -0.5076 -0.6552 -0.5595
s 1
f 12/1/1 14/2/2 6/3/3 4/4/4
f 15/5/5 12/1/1 4/4/4 7/6/6
f 16/7/7 9/8/8 1/9/9 8/10/10
f 11/11/11 10/12/12 2/13/13 3/14/14
f 14/2/2 13/15/15 5/16/16 6/3/3
f 13/15/15 16/7/7 8/10/10 5/16/16
f 11/11/11 15/5/5 7/6/6 3/14/14
f 10/12/12 9/8/8 1/9/9 2/13/13
f 19/17/17 23/18/18 15/5/5 11/11/11
f 18/19/19 17/20/20 9/8/8 10/12/12
f 20/21/21 22/22/22 14/2/2 12/1/1
f 23/18/18 20/21/21 12/1/1 15/5/5
f 24/23/23 17/20/20 9/8/8 16/7/7
f 19/17/17 18/19/19 10/12/12 11/11/11
f 22/22/22 21/24/24 13/15/15 14/2/2
f 21/24/24 24/23/23 16/7/7 13/15/15
f 30/25/25 29/26/26 21/24/24 22/22/22
f 29/26/26 32/27/27 24/23/23 21/24/24
f 27/28/28 31/29/29 23/18/18 19/17/17
f 26/30/30 25/31/31 17/20/20 18/19/19
f 28/32/32 30/25/25 22/22/22 20/21/21
f 31/29/29 28/32/32 20/21/21 23/18/18
f 32/27/27 25/31/31 17/20/20 24/23/23
f 27/28/28 26/30/30 18/19/19 19/17/17
f 39/33/33 36/34/34 28/32/32 31/29/29
f 40/35/35 33/36/36 25/31/31 32/27/27
f 35/37/37 34/38/38 26/30/30 27/28/28
f 38/39/39 37/40/40 29/26/26 30/25/25
f 37/40/40 40/35/35 32/27/27 29/26/26
f 35/37/37 39/33/33 31/29/29 27/28/28
f 34/38/38 33/36/36 25/31/31 26/30/30
f 36/34/34 38/39/39 30/25/25 28/32/32
f 45/41/41 48/42/42 40/35/35 37/40/40
f 43/43/43 47/44/44 39/33/33 35/37/37
f 42/45/45 41/46/46 33/36/36 34/38/38
f 44/47/47 46/48/48 38/39/39 36/34/34
f 47/44/44 44/47/47 36/34/34 39/33/33
f 48/42/42 41/46/46 33/36/36 40/35/35
f 43/43/43 42/45/45 34/38/38 35/37/37
f 46/48/48 45/41/41 37/40/40 38/39/39
f 56/49/49 49/50/50 41/46/46 48/42/42
f 51/51/51 50/52/52 42/45/45 43/43/43
f 54/53/53 53/54/54 45/41/41 46/48/48
f 53/54/54 56/49/49 48/42/42 45/41/41
f 51/51/51 55/55/55 47/44/44 43/43/43
f 50/52/52 49/50/50 41/46/46 42/45/45
f 52/56/56 54/53/53 46/48/48 44/47/47
f 55/55/55 52/56/56 44/47/47 47/44/44
f 60/57/57 62/58/58 54/53/53 52/56/56
f 63/59/59 60/57/57 52/56/56 55/55/55
f 64/60/60 57/61/61 49/50/50 56/49/49
f 59/62/62 58/63/63 50/52/52 51/51/51
f 62/58/58 61/64/64 53/54/54 54/53/53
f 61/64/64 64/60/60 56/49/49 53/54/54
f 59/62/62 63/59/59 55/55/55 51/51/51
f 58/63/63 57/61/61 49/50/50 50/52/52
f 67/65/65 66/66/66 58/63/63 59/62/62
f 70/67/67 69/68/68 61/64/64 62/58/58
f 71/69/69 68/70/70 60/57/57 63/59/59
f 66/66/66 65/71/71 57/61/61 58/63/63
f 68/70/70 70/67/67 62/58/58 60/57/57
f 69/68/68 72/72/72 64/60/60 61/64/64
f 67/65/65 71/69/69 63/59/59 59/62/62
f 72/72/72 65/71/71 57/61/61 64/60/60
f 68/70/70 71/69/69 67/65/65
f 66/66/66 68/70/70 67/65/65
f 69/68/68 70/67/67 66/66/66
f 65/71/71 69/68/68 66/66/66
f 72/72/72 69/68/68 65/71/71
f 70/67/67 68/70/70 66/66/66
